<svg width="20" height="20" viewBox="0 0 20 20" fill="none" xmlns="http://www.w3.org/2000/svg">
<path fill-rule="evenodd" clip-rule="evenodd" d="M2.97712 2L1.87793 3.08126L16.0226 17L17.1218 15.9184L2.97712 2Z" fill="white"/>
<path d="M4.20032 5.36425L5.23492 6.38229C4.10236 7.33118 3.20051 8.51233 2.61773 9.54574L2.61595 9.54923C4.23901 12.2195 6.81431 14.7432 10.0647 14.3604C10.942 14.257 11.7605 13.9619 12.5083 13.5397L13.5557 14.57C12.098 15.4906 10.4271 15.9781 8.6166 15.7371C5.35204 15.3027 2.68268 12.668 1 9.57368C1.79005 8.00941 2.87079 6.51291 4.20032 5.36425ZM6.55345 3.85551C7.4663 3.45528 8.45405 3.21989 9.50887 3.20313C9.56744 3.20278 10.2627 3.23526 10.5779 3.28625C10.7756 3.31838 10.9726 3.35854 11.1667 3.40848C14.2634 4.20231 16.5576 6.77833 18 9.43223C17.3949 10.6347 16.6023 11.8081 15.6572 12.8136L14.6538 11.8263C15.3519 11.0859 15.934 10.2617 16.3823 9.46227C16.3823 9.46227 15.9315 8.74911 15.5897 8.30138C15.37 8.01361 15.139 7.73421 14.8962 7.46494C14.7046 7.2526 13.9603 6.53142 13.7832 6.38124C12.5949 5.37577 11.1997 4.58683 9.52626 4.6001C8.87818 4.61023 8.25494 4.73596 7.66328 4.9476L6.55345 3.85551Z" fill="white"/>
<path fill-rule="evenodd" clip-rule="evenodd" d="M7.0168 8.13607L7.81548 8.92165L10.8897 11.9467C10.4787 12.1737 10.0045 12.3029 9.50019 12.3029C7.92966 12.3029 6.65479 11.0484 6.65479 9.50301C6.65479 9.00673 6.78646 8.54049 7.0168 8.13607ZM9.44766 6.70382C9.46505 6.70347 9.48279 6.70312 9.50019 6.70312C11.0707 6.70312 12.3456 7.95796 12.3456 9.50301C12.3456 9.52047 12.3456 9.53758 12.3452 9.5547L9.44766 6.70382Z" fill="white"/>
</svg>
