<svg width="18" height="19" viewBox="0 0 18 19" fill="none" xmlns="http://www.w3.org/2000/svg">
<path fill-rule="evenodd" clip-rule="evenodd" d="M5.27824 0.970133C5.54988 0.397755 6.13584 0 6.81299 0H10.6935C11.3707 0 11.9557 0.397755 12.2283 0.970133C12.8909 0.975954 13.408 1.00603 13.8697 1.18647C14.421 1.40211 14.9004 1.76856 15.2532 2.24392C15.6092 2.72316 15.777 3.33726 16.006 4.18224L16.7258 6.82295L16.9975 7.63883L17.0207 7.66793C17.8948 8.78747 17.4786 10.4522 16.6463 13.7807C16.1166 15.8985 15.8527 16.957 15.063 17.574C14.2733 18.19 13.1819 18.19 10.9991 18.19H6.5074C4.3246 18.19 3.2332 18.19 2.44351 17.574C1.65382 16.957 1.38898 15.8985 0.860254 13.7807C0.0278795 10.4522 -0.388308 8.78747 0.485782 7.66793L0.509066 7.63883L0.780703 6.82295L1.50054 4.18224C1.73046 3.33726 1.8983 2.72219 2.25337 2.24295C2.60623 1.76795 3.08564 1.40184 3.63678 1.18647C4.09856 1.00603 4.61467 0.974984 5.27824 0.970133ZM5.28018 2.42824C4.63795 2.43503 4.3799 2.45929 4.16647 2.54272C3.86957 2.65883 3.61137 2.85618 3.42141 3.11219C3.25066 3.34211 3.14977 3.66322 2.86843 4.69836L2.31545 6.72496C3.30499 6.5484 4.65736 6.5484 6.50643 6.5484H10.9991C12.8492 6.5484 14.2006 6.5484 15.1901 6.72302L14.6381 4.69642C14.3568 3.66128 14.2559 3.34017 14.0851 3.11025C13.8952 2.85424 13.6369 2.65689 13.3401 2.54078C13.1266 2.45735 12.8686 2.43309 12.2263 2.4263C12.0886 2.71623 11.8715 2.96116 11.6002 3.13269C11.3289 3.30423 11.0145 3.39534 10.6935 3.39547H6.81299C6.49212 3.39543 6.17782 3.30446 5.90653 3.1331C5.63524 2.96175 5.41807 2.71798 5.28018 2.42824Z" fill="#F9E8D7"/>
<path d="M8.83089 15.8729C8.83089 15.8729 4.99918 16.3638 4.07092 12.1264C5.87601 12.1095 8.3525 12.8102 8.83089 15.8729Z" fill="#9C6B32"/>
<path d="M8.96039 15.8916C8.96039 15.8916 9.00344 12.0301 13.3366 11.698C13.1026 13.4936 12.0564 15.8465 8.96039 15.8916Z" fill="#9C6B32"/>
<path d="M9.04457 13.4774C9.04457 13.4774 6.23522 10.8275 8.92748 7.42088C10.0902 8.8064 11.1093 11.1659 9.04457 13.4774Z" fill="#9C6B32"/>
</svg>
