<svg width="16" height="16" viewBox="0 0 16 16" fill="none" xmlns="http://www.w3.org/2000/svg">
<path d="M3.91755 6.26758C3.89222 6.26758 3.87022 6.28491 3.86489 6.30958L3.32422 8.60091H4.49555L3.97089 6.30958C3.96489 6.28491 3.94289 6.26758 3.91755 6.26758Z" fill="#683C15"/>
<path d="M12.6665 2.66602H8.6665V13.3327H12.6665C14.5045 13.3327 15.9998 11.8373 15.9998 9.99935V5.99935C15.9998 4.16135 14.5045 2.66602 12.6665 2.66602ZM14.6665 6.42402C14.6665 6.65068 14.4825 6.83468 14.2558 6.83468H14.0452C13.9645 7.68468 13.6338 8.65535 12.9738 9.41202C13.3352 9.63135 13.7685 9.78802 14.2965 9.83802C14.5065 9.85802 14.6665 10.0353 14.6665 10.2467V10.2607C14.6665 10.5047 14.4558 10.6927 14.2132 10.6693C13.4552 10.5967 12.8405 10.3433 12.3412 9.98802C11.8392 10.3467 11.2172 10.598 10.4532 10.6693C10.2105 10.692 10.0005 10.504 10.0005 10.2607V10.2467C10.0005 10.0327 10.1658 9.85735 10.3792 9.83735C10.9045 9.78735 11.3378 9.63268 11.6972 9.41402C11.4765 9.16135 11.2925 8.88468 11.1418 8.59602C10.9998 8.32402 11.2012 7.99868 11.5085 7.99868H11.5152C11.6658 7.99868 11.8065 8.08002 11.8758 8.21402C11.9992 8.44868 12.1532 8.67468 12.3378 8.88202C12.8832 8.26868 13.1325 7.47668 13.2065 6.83468H10.4125C10.1858 6.83468 10.0018 6.65068 10.0018 6.42402V6.41002C10.0018 6.18335 10.1858 5.99935 10.4125 5.99935H11.9172V5.74335C11.9172 5.51668 12.1012 5.33268 12.3278 5.33268H12.3418C12.5685 5.33268 12.7525 5.51668 12.7525 5.74335V5.99935H14.2572C14.4838 5.99935 14.6678 6.18335 14.6678 6.41002V6.42402H14.6665Z" fill="#683C15"/>
<path d="M7.33333 2.66602H3.33333C1.492 2.66602 0 4.15868 0 5.99935V9.99935C0 11.8407 1.492 13.3327 3.33333 13.3327H7.33333V2.66602ZM5.34 10.666C5.12267 10.666 4.934 10.516 4.88533 10.304L4.70867 9.53268H3.10267L2.92 10.3067C2.87 10.5173 2.68267 10.666 2.466 10.666C2.16533 10.666 1.94333 10.3853 2.012 10.0927L2.954 6.09735C3.088 5.52002 3.712 5.16002 4.32467 5.41668C4.61733 5.53935 4.814 5.82068 4.886 6.13002L5.79467 10.0953C5.86133 10.3873 5.64 10.666 5.34 10.666Z" fill="#683C15"/>
</svg>
